<mxfile><diagram name="Flow 3"><mxGraphModel><root><mxCell id="0"/><mxCell id="1" parent="0"/><mxCell id="t" value="User Flow 3: Admin Reviews Submission\nPlatform admin reviews Uncle Tommy's submission" style="text;fontSize=14;fontStyle=1" vertex="1" parent="1"><mxGeometry x="300" y="20" width="600" height="40"/></mxCell><mxCell id="s1" value="1. Admin Login" style="rounded=1;fillColor=#ffebee" vertex="1" parent="1"><mxGeometry x="80" y="100" width="120" height="60"/></mxCell><mxCell id="s2" value="2. Dashboard\nSee Alerts" style="rounded=1;fillColor=#ffebee" vertex="1" parent="1"><mxGeometry x="240" y="100" width="120" height="60"/></mxCell><mxCell id="s3" value="3. Pending\nQueue List" style="rounded=1;fillColor=#ffebee" vertex="1" parent="1"><mxGeometry x="400" y="100" width="120" height="60"/></mxCell><mxCell id="s4" value="4. Click to\nReview" style="rounded=1;fillColor=#ffebee" vertex="1" parent="1"><mxGeometry x="560" y="100" width="120" height="60"/></mxCell><mxCell id="s5" value="5. Review Modal\nCheck all details" style="rounded=1;fillColor=#ffebee" vertex="1" parent="1"><mxGeometry x="720" y="100" width="120" height="60"/></mxCell><mxCell id="dec" value="Decision?" style="rhombus;fillColor=#fff3e0" vertex="1" parent="1"><mxGeometry x="740" y="200" width="80" height="80"/></mxCell><mxCell id="app" value="Approve\nGoes Live" style="rounded=1;fillColor=#4caf50;fontColor=#fff" vertex="1" parent="1"><mxGeometry x="880" y="220" width="100" height="60"/></mxCell><mxCell id="rej" value="Reject\nWith Reason" style="rounded=1;fillColor=#f44336;fontColor=#fff" vertex="1" parent="1"><mxGeometry x="600" y="220" width="100" height="60"/></mxCell><mxCell id="notif" value="User Notified" style="rounded=1;fillColor=#e3f2fd" vertex="1" parent="1"><mxGeometry x="740" y="340" width="100" height="60"/></mxCell></root></mxGraphModel></diagram></mxfile>
